<svg xmlns="http://www.w3.org/2000/svg" xmlns:xlink="http://www.w3.org/1999/xlink" width="500" zoomAndPan="magnify" viewBox="0 0 375 374.999991" height="500" preserveAspectRatio="xMidYMid meet" version="1.0"><defs><g/></defs><g fill="#ffffff" fill-opacity="1"><g transform="translate(86.990624, 228.950097)"><g><path d="M 27.5 -42.015625 C 27.5 -40.003906 26.34375 -34.453125 24.03125 -25.359375 C 23.550781 -23.378906 23.128906 -21.65625 22.765625 -20.1875 C 22.398438 -18.71875 22.070312 -17.34375 21.78125 -16.0625 C 21.488281 -14.78125 21.1875 -13.394531 20.875 -11.90625 C 20.5625 -10.425781 20.1875 -8.65625 19.75 -6.59375 C 17.988281 1.832031 16.390625 6.648438 14.953125 7.859375 C 14.222656 8.484375 13.457031 8.648438 12.65625 8.359375 C 11.882812 8.066406 11.441406 7.476562 11.328125 6.59375 C 11.296875 6.414062 11.304688 5.941406 11.359375 5.171875 C 11.410156 4.398438 11.507812 3.570312 11.65625 2.6875 C 11.769531 1.882812 11.863281 1.195312 11.9375 0.625 C 12.007812 0.0625 12.085938 -0.5 12.171875 -1.0625 C 12.265625 -1.632812 12.394531 -2.332031 12.5625 -3.15625 C 12.726562 -3.988281 12.941406 -5.0625 13.203125 -6.375 C 13.453125 -7.550781 13.660156 -8.601562 13.828125 -9.53125 C 13.992188 -10.46875 14.175781 -11.492188 14.375 -12.609375 C 14.582031 -13.734375 14.832031 -15.160156 15.125 -16.890625 C 15.3125 -17.953125 15.550781 -19.1875 15.84375 -20.59375 C 16.132812 -22.007812 16.390625 -23.15625 16.609375 -24.03125 C 16.796875 -24.945312 16.96875 -25.753906 17.125 -26.453125 C 17.289062 -27.148438 17.375 -27.535156 17.375 -27.609375 C 17.445312 -28.015625 17.28125 -27.835938 16.875 -27.078125 C 16.476562 -26.328125 15.921875 -25.171875 15.203125 -23.609375 C 14.492188 -22.054688 13.6875 -20.269531 12.78125 -18.25 C 11.882812 -16.238281 11 -14.148438 10.125 -11.984375 C 9.238281 -9.828125 8.566406 -8.257812 8.109375 -7.28125 C 7.648438 -6.3125 7.273438 -5.734375 6.984375 -5.546875 C 6.691406 -5.367188 6.328125 -5.332031 5.890625 -5.4375 C 5.117188 -5.625 4.675781 -6.125 4.5625 -6.9375 C 4.53125 -7.15625 4.539062 -7.722656 4.59375 -8.640625 C 4.644531 -9.554688 4.734375 -10.65625 4.859375 -11.9375 C 4.992188 -13.21875 5.132812 -14.523438 5.28125 -15.859375 C 5.425781 -17.203125 5.570312 -18.390625 5.71875 -19.421875 C 5.789062 -19.816406 5.835938 -20.148438 5.859375 -20.421875 C 5.878906 -20.703125 5.867188 -20.863281 5.828125 -20.90625 C 5.796875 -20.90625 5.640625 -20.664062 5.359375 -20.1875 C 5.085938 -19.707031 4.738281 -19.070312 4.3125 -18.28125 C 3.894531 -17.5 3.460938 -16.6875 3.015625 -15.84375 C 2.578125 -15 2.175781 -14.207031 1.8125 -13.46875 C 1.476562 -12.78125 1.128906 -11.984375 0.765625 -11.078125 C 0.398438 -10.179688 0.125 -9.441406 -0.0625 -8.859375 C -0.425781 -7.578125 -0.695312 -6.75 -0.875 -6.375 C -1.132812 -6.007812 -1.546875 -5.863281 -2.109375 -5.9375 C -2.679688 -6.007812 -3.003906 -6.285156 -3.078125 -6.765625 C -3.117188 -6.910156 -3.054688 -7.410156 -2.890625 -8.265625 C -2.722656 -9.128906 -2.5 -10.164062 -2.21875 -11.375 C -1.945312 -12.59375 -1.664062 -13.816406 -1.375 -15.046875 C -1.082031 -16.273438 -0.804688 -17.328125 -0.546875 -18.203125 C 0.0351562 -20.179688 0.65625 -21.847656 1.3125 -23.203125 C 1.976562 -24.566406 2.53125 -25.265625 2.96875 -25.296875 C 3.226562 -25.367188 3.503906 -25.296875 3.796875 -25.078125 C 4.085938 -24.859375 4.253906 -24.617188 4.296875 -24.359375 C 4.328125 -24.210938 4.269531 -23.875 4.125 -23.34375 C 3.976562 -22.8125 3.8125 -22.234375 3.625 -21.609375 C 3.257812 -20.515625 3.019531 -19.742188 2.90625 -19.296875 C 2.800781 -18.859375 2.769531 -18.640625 2.8125 -18.640625 C 2.84375 -18.640625 3.039062 -18.957031 3.40625 -19.59375 C 3.769531 -20.238281 4.191406 -21 4.671875 -21.875 C 5.148438 -22.757812 5.585938 -23.585938 5.984375 -24.359375 C 6.390625 -25.128906 6.648438 -25.660156 6.765625 -25.953125 C 7.203125 -27.023438 7.53125 -27.742188 7.75 -28.109375 C 7.96875 -28.472656 8.242188 -28.671875 8.578125 -28.703125 C 8.984375 -28.773438 9.347656 -28.65625 9.671875 -28.34375 C 10.003906 -28.039062 10.207031 -27.628906 10.28125 -27.109375 C 10.351562 -26.640625 10.316406 -25.601562 10.171875 -24 C 10.023438 -22.40625 9.804688 -20.53125 9.515625 -18.375 C 9.367188 -17.53125 9.257812 -16.785156 9.1875 -16.140625 C 9.113281 -15.503906 9.09375 -15.1875 9.125 -15.1875 C 9.195312 -15.144531 9.304688 -15.269531 9.453125 -15.5625 C 9.609375 -15.851562 9.796875 -16.222656 10.015625 -16.671875 C 11.296875 -19.566406 12.550781 -22.195312 13.78125 -24.5625 C 15.007812 -26.925781 16.375 -29.335938 17.875 -31.796875 C 18.3125 -32.484375 18.769531 -33.273438 19.25 -34.171875 C 19.726562 -35.078125 20.09375 -35.820312 20.34375 -36.40625 C 21.15625 -38.351562 21.828125 -39.863281 22.359375 -40.9375 C 22.890625 -42.019531 23.335938 -42.835938 23.703125 -43.390625 C 23.992188 -43.867188 24.238281 -44.179688 24.4375 -44.328125 C 24.644531 -44.472656 24.878906 -44.566406 25.140625 -44.609375 C 25.867188 -44.710938 26.441406 -44.523438 26.859375 -44.046875 C 27.285156 -43.578125 27.5 -42.898438 27.5 -42.015625 Z M 27.5 -42.015625 "/></g></g></g><g fill="#ffffff" fill-opacity="1"><g transform="translate(110.03392, 228.950097)"><g><path d="M 9.40625 -16.171875 C 9.507812 -16.390625 9.679688 -16.945312 9.921875 -17.84375 C 10.160156 -18.738281 10.4375 -19.765625 10.75 -20.921875 C 11.0625 -22.078125 11.328125 -23.132812 11.546875 -24.09375 C 11.953125 -25.707031 12.3125 -27.21875 12.625 -28.625 C 12.9375 -30.039062 13.179688 -31.195312 13.359375 -32.09375 C 13.546875 -32.988281 13.617188 -33.4375 13.578125 -33.4375 C 13.578125 -33.476562 13.289062 -33.019531 12.71875 -32.0625 C 12.15625 -31.113281 11.441406 -29.875 10.578125 -28.34375 C 9.722656 -26.820312 8.800781 -25.179688 7.8125 -23.421875 C 6.820312 -21.671875 5.875 -19.96875 4.96875 -18.3125 C 4.070312 -16.664062 3.3125 -15.242188 2.6875 -14.046875 C 2.070312 -12.859375 1.707031 -12.097656 1.59375 -11.765625 L 5.390625 -13.75 C 6.597656 -14.375 7.554688 -14.894531 8.265625 -15.3125 C 8.984375 -15.738281 9.363281 -16.023438 9.40625 -16.171875 Z M 14.515625 -17.8125 C 14.515625 -17.8125 14.671875 -17.882812 14.984375 -18.03125 C 15.296875 -18.1875 15.632812 -18.335938 16 -18.484375 C 16.375 -18.628906 16.632812 -18.679688 16.78125 -18.640625 C 17.363281 -18.492188 17.738281 -18.050781 17.90625 -17.3125 C 18.070312 -16.582031 18.132812 -15.820312 18.09375 -15.03125 C 18.0625 -14.25 18.046875 -13.675781 18.046875 -13.3125 C 18.046875 -12.539062 17.613281 -11.816406 16.75 -11.140625 C 15.882812 -10.460938 14.863281 -9.8125 13.6875 -9.1875 L 12.265625 -8.421875 L 11.0625 -2.96875 C 10.726562 -1.46875 10.394531 -0.09375 10.0625 1.15625 C 9.726562 2.40625 9.507812 3.15625 9.40625 3.40625 C 9.070312 4.144531 8.601562 4.660156 8 4.953125 C 7.394531 5.242188 6.78125 5.242188 6.15625 4.953125 C 5.757812 4.765625 5.421875 4.453125 5.140625 4.015625 C 4.867188 3.578125 4.734375 3.082031 4.734375 2.53125 C 4.734375 2.34375 4.832031 1.78125 5.03125 0.84375 C 5.226562 -0.0820312 5.457031 -1.078125 5.71875 -2.140625 C 5.976562 -3.203125 6.1875 -4.128906 6.34375 -4.921875 C 6.507812 -5.710938 6.554688 -6.109375 6.484375 -6.109375 C 6.453125 -6.109375 6.171875 -6.003906 5.640625 -5.796875 C 5.109375 -5.597656 4.484375 -5.34375 3.765625 -5.03125 C 3.046875 -4.71875 2.335938 -4.40625 1.640625 -4.09375 C 0.953125 -3.78125 0.382812 -3.515625 -0.0625 -3.296875 C -0.644531 -3.003906 -1.023438 -2.753906 -1.203125 -2.546875 C -1.390625 -2.347656 -1.578125 -1.976562 -1.765625 -1.4375 C -1.984375 -0.84375 -2.171875 -0.425781 -2.328125 -0.1875 C -2.492188 0.0507812 -2.726562 0.171875 -3.03125 0.171875 C -3.25 0.171875 -3.457031 0.0351562 -3.65625 -0.234375 C -3.851562 -0.515625 -3.953125 -0.800781 -3.953125 -1.09375 C -3.953125 -1.46875 -4.101562 -1.65625 -4.40625 -1.65625 C -4.769531 -1.65625 -5.125 -1.765625 -5.46875 -1.984375 C -5.820312 -2.203125 -6.050781 -2.4375 -6.15625 -2.6875 C -6.269531 -3.0625 -6.222656 -3.613281 -6.015625 -4.34375 C -5.816406 -5.070312 -5.5 -5.832031 -5.0625 -6.625 C -4.625 -7.414062 -4.070312 -8.085938 -3.40625 -8.640625 C -2.820312 -9.148438 -2.421875 -9.609375 -2.203125 -10.015625 C -1.722656 -10.960938 -1.078125 -12.28125 -0.265625 -13.96875 C 0.535156 -15.65625 1.445312 -17.523438 2.46875 -19.578125 C 3.5 -21.628906 4.570312 -23.71875 5.6875 -25.84375 C 6.8125 -27.976562 7.910156 -29.988281 8.984375 -31.875 C 10.066406 -33.757812 11.066406 -35.351562 11.984375 -36.65625 C 12.898438 -37.957031 13.691406 -38.8125 14.359375 -39.21875 C 15.160156 -39.613281 15.898438 -39.664062 16.578125 -39.375 C 17.253906 -39.082031 17.664062 -38.535156 17.8125 -37.734375 C 17.894531 -37.328125 17.859375 -36.546875 17.703125 -35.390625 C 17.554688 -34.234375 17.347656 -32.828125 17.078125 -31.171875 C 16.804688 -29.523438 16.476562 -27.726562 16.09375 -25.78125 C 15.707031 -23.84375 15.289062 -21.90625 14.84375 -19.96875 C 14.664062 -19.195312 14.554688 -18.664062 14.515625 -18.375 C 14.484375 -18.082031 14.472656 -17.925781 14.484375 -17.90625 C 14.503906 -17.882812 14.515625 -17.851562 14.515625 -17.8125 Z M 14.515625 -17.8125 "/></g></g></g><g fill="#ffffff" fill-opacity="1"><g transform="translate(126.312693, 228.950097)"><g><path d="M 8.25 -25.140625 C 8.46875 -25.910156 8.648438 -26.578125 8.796875 -27.140625 C 8.941406 -27.710938 9 -28.015625 8.96875 -28.046875 C 8.925781 -28.085938 8.578125 -28.035156 7.921875 -27.890625 C 7.265625 -27.742188 6.503906 -27.554688 5.640625 -27.328125 C 4.773438 -27.109375 4.03125 -26.898438 3.40625 -26.703125 C 2.78125 -26.503906 2.46875 -26.382812 2.46875 -26.34375 C 2.46875 -26.3125 2.597656 -26.203125 2.859375 -26.015625 C 3.117188 -25.828125 3.410156 -25.625 3.734375 -25.40625 C 4.109375 -25.1875 4.53125 -24.882812 5 -24.5 C 5.476562 -24.113281 5.882812 -23.738281 6.21875 -23.375 C 6.539062 -23.039062 6.820312 -22.765625 7.0625 -22.546875 C 7.300781 -22.328125 7.421875 -22.21875 7.421875 -22.21875 C 7.460938 -22.21875 7.5625 -22.5 7.71875 -23.0625 C 7.882812 -23.632812 8.0625 -24.328125 8.25 -25.140625 Z M 6.265625 -20.6875 C 5.898438 -21.375 5.304688 -22.078125 4.484375 -22.796875 C 3.660156 -23.515625 2.789062 -24.109375 1.875 -24.578125 C 0.988281 -25.054688 0.378906 -25.34375 0.046875 -25.4375 C -0.273438 -25.53125 -0.804688 -25.539062 -1.546875 -25.46875 C -2.972656 -25.25 -4.179688 -25.613281 -5.171875 -26.5625 C -5.828125 -27.1875 -6.21875 -27.847656 -6.34375 -28.546875 C -6.476562 -29.242188 -6.328125 -29.847656 -5.890625 -30.359375 C -5.484375 -30.867188 -4.609375 -31.398438 -3.265625 -31.953125 C -1.929688 -32.503906 -0.285156 -33.054688 1.671875 -33.609375 C 3.640625 -34.160156 5.785156 -34.664062 8.109375 -35.125 C 10.441406 -35.582031 12.816406 -35.957031 15.234375 -36.25 C 17.722656 -36.570312 19.765625 -36.796875 21.359375 -36.921875 C 22.960938 -37.054688 24.25 -37.078125 25.21875 -36.984375 C 26.1875 -36.890625 26.960938 -36.675781 27.546875 -36.34375 C 28.140625 -36.019531 28.675781 -35.566406 29.15625 -34.984375 C 29.882812 -34.097656 30.066406 -33.21875 29.703125 -32.34375 C 29.515625 -31.90625 29.164062 -31.601562 28.65625 -31.4375 C 28.144531 -31.269531 27.300781 -31.148438 26.125 -31.078125 C 25.46875 -31.035156 24.453125 -30.921875 23.078125 -30.734375 C 21.703125 -30.554688 20.242188 -30.335938 18.703125 -30.078125 C 17.160156 -29.828125 15.800781 -29.570312 14.625 -29.3125 L 12.703125 -28.9375 L 12.3125 -27.28125 C 12.207031 -26.84375 12 -26 11.6875 -24.75 C 11.375 -23.5 11.050781 -22.234375 10.71875 -20.953125 C 10.351562 -19.484375 10.066406 -18.191406 9.859375 -17.078125 C 9.660156 -15.960938 9.5625 -15.179688 9.5625 -14.734375 C 9.5625 -14.117188 9.476562 -13.269531 9.3125 -12.1875 C 9.15625 -11.101562 8.945312 -9.914062 8.6875 -8.625 C 8.4375 -7.34375 8.160156 -6.085938 7.859375 -4.859375 C 7.566406 -3.640625 7.289062 -2.570312 7.03125 -1.65625 C 6.78125 -0.738281 6.5625 -0.09375 6.375 0.28125 C 6.082031 0.894531 5.6875 1.238281 5.1875 1.3125 C 4.695312 1.394531 4.195312 1.195312 3.6875 0.71875 C 3.394531 0.425781 3.191406 -0.00390625 3.078125 -0.578125 C 2.972656 -1.148438 2.992188 -2.007812 3.140625 -3.15625 C 3.285156 -4.3125 3.59375 -5.914062 4.0625 -7.96875 C 4.539062 -10.03125 5.1875 -12.707031 6 -16 L 6.875 -19.640625 Z M 6.265625 -20.6875 "/></g></g></g><g fill="#ffffff" fill-opacity="1"><g transform="translate(143.471345, 228.950097)"><g><path d="M 15.015625 -11.5 C 15.128906 -12.039062 15.203125 -12.519531 15.234375 -12.9375 C 15.273438 -13.363281 15.273438 -13.578125 15.234375 -13.578125 C 15.203125 -13.617188 14.890625 -13.566406 14.296875 -13.421875 C 13.710938 -13.273438 13.035156 -13.09375 12.265625 -12.875 C 11.492188 -12.65625 10.664062 -12.414062 9.78125 -12.15625 C 8.90625 -11.894531 8.210938 -11.710938 7.703125 -11.609375 L 5.9375 -11.109375 L 5.109375 -6.65625 C 4.816406 -5.039062 4.5625 -3.820312 4.34375 -3 C 4.125 -2.175781 3.894531 -1.625 3.65625 -1.34375 C 3.414062 -1.070312 3.113281 -0.9375 2.75 -0.9375 C 2.34375 -0.9375 1.957031 -1.097656 1.59375 -1.421875 C 1.226562 -1.753906 1.007812 -2.160156 0.9375 -2.640625 C 0.894531 -2.859375 0.898438 -3.359375 0.953125 -4.140625 C 1.015625 -4.929688 1.117188 -5.769531 1.265625 -6.65625 C 1.410156 -7.570312 1.519531 -8.347656 1.59375 -8.984375 C 1.664062 -9.628906 1.6875 -9.953125 1.65625 -9.953125 C 1.613281 -9.953125 1.375 -9.894531 0.9375 -9.78125 C 0.5 -9.675781 0.00390625 -9.550781 -0.546875 -9.40625 C -1.898438 -9.039062 -2.84375 -8.863281 -3.375 -8.875 C -3.914062 -8.894531 -4.421875 -9.109375 -4.890625 -9.515625 C -5.179688 -9.804688 -5.375 -10.039062 -5.46875 -10.21875 C -5.5625 -10.40625 -5.628906 -10.644531 -5.671875 -10.9375 C -5.703125 -11.675781 -5.332031 -12.347656 -4.5625 -12.953125 C -3.789062 -13.554688 -2.507812 -14.1875 -0.71875 -14.84375 C -0.09375 -15.070312 0.519531 -15.296875 1.125 -15.515625 C 1.726562 -15.734375 2.140625 -15.859375 2.359375 -15.890625 L 3.140625 -16.0625 L 3.953125 -19.859375 C 4.359375 -21.691406 4.816406 -23.515625 5.328125 -25.328125 C 5.847656 -27.140625 6.363281 -28.816406 6.875 -30.359375 C 7.382812 -31.898438 7.859375 -33.191406 8.296875 -34.234375 C 8.742188 -35.285156 9.113281 -35.9375 9.40625 -36.1875 C 9.882812 -36.625 10.378906 -36.625 10.890625 -36.1875 C 11.222656 -35.894531 11.390625 -35.601562 11.390625 -35.3125 C 11.347656 -34.945312 11.21875 -34.210938 11 -33.109375 C 10.78125 -32.003906 10.523438 -30.921875 10.234375 -29.859375 C 10.085938 -29.273438 9.894531 -28.476562 9.65625 -27.46875 C 9.414062 -26.457031 9.15625 -25.382812 8.875 -24.25 C 8.601562 -23.113281 8.335938 -22.03125 8.078125 -21 C 7.828125 -19.976562 7.628906 -19.132812 7.484375 -18.46875 C 7.335938 -17.8125 7.265625 -17.46875 7.265625 -17.4375 C 7.265625 -17.363281 7.351562 -17.328125 7.53125 -17.328125 C 7.601562 -17.328125 7.953125 -17.40625 8.578125 -17.5625 C 9.203125 -17.726562 9.941406 -17.921875 10.796875 -18.140625 C 11.660156 -18.367188 12.523438 -18.597656 13.390625 -18.828125 C 14.253906 -19.066406 14.976562 -19.28125 15.5625 -19.46875 C 16.144531 -19.65625 16.457031 -19.765625 16.5 -19.796875 C 16.570312 -19.867188 16.679688 -20.160156 16.828125 -20.671875 C 16.972656 -21.191406 17.117188 -21.800781 17.265625 -22.5 C 17.890625 -25.132812 18.578125 -27.597656 19.328125 -29.890625 C 20.078125 -32.179688 20.835938 -34.101562 21.609375 -35.65625 C 22.378906 -37.21875 23.0625 -38.164062 23.65625 -38.5 C 23.90625 -38.6875 24.101562 -38.78125 24.25 -38.78125 C 24.394531 -38.78125 24.597656 -38.722656 24.859375 -38.609375 C 25.296875 -38.390625 25.609375 -38.097656 25.796875 -37.734375 C 25.972656 -37.441406 26.035156 -36.953125 25.984375 -36.265625 C 25.929688 -35.585938 25.757812 -34.578125 25.46875 -33.234375 C 25.175781 -31.898438 24.695312 -30.082031 24.03125 -27.78125 C 23.445312 -25.6875 23 -24.0625 22.6875 -22.90625 C 22.375 -21.75 22.148438 -20.882812 22.015625 -20.3125 C 21.890625 -19.75 21.835938 -19.328125 21.859375 -19.046875 C 21.878906 -18.773438 21.90625 -18.492188 21.9375 -18.203125 C 22.019531 -17.722656 22.039062 -17.382812 22 -17.1875 C 21.957031 -16.988281 21.8125 -16.703125 21.5625 -16.328125 C 20.9375 -15.484375 20.203125 -12.222656 19.359375 -6.546875 C 18.953125 -3.753906 18.59375 -1.789062 18.28125 -0.65625 C 17.96875 0.476562 17.59375 1.175781 17.15625 1.4375 C 16.832031 1.613281 16.566406 1.703125 16.359375 1.703125 C 16.160156 1.703125 15.878906 1.613281 15.515625 1.4375 C 14.921875 1.132812 14.492188 0.660156 14.234375 0.015625 C 13.984375 -0.617188 13.878906 -1.519531 13.921875 -2.6875 C 13.953125 -3.28125 14.019531 -4.085938 14.125 -5.109375 C 14.238281 -6.140625 14.378906 -7.234375 14.546875 -8.390625 C 14.710938 -9.546875 14.867188 -10.582031 15.015625 -11.5 Z M 15.015625 -11.5 "/></g></g></g><g fill="#ffffff" fill-opacity="1"><g transform="translate(167.614589, 228.950097)"><g><path d="M -2.359375 -8.078125 C -2.035156 -10.171875 -1.523438 -12.445312 -0.828125 -14.90625 C -0.128906 -17.363281 0.664062 -19.753906 1.5625 -22.078125 C 2.46875 -24.410156 3.382812 -26.472656 4.3125 -28.265625 C 5.25 -30.066406 6.101562 -31.351562 6.875 -32.125 C 7.425781 -32.664062 7.984375 -32.992188 8.546875 -33.109375 C 9.117188 -33.222656 9.585938 -33.078125 9.953125 -32.671875 C 10.285156 -32.335938 10.453125 -32.03125 10.453125 -31.75 C 10.453125 -31.476562 10.269531 -30.90625 9.90625 -30.03125 C 9.53125 -29 9.21875 -28.484375 8.96875 -28.484375 C 8.820312 -28.484375 8.582031 -28.085938 8.25 -27.296875 C 7.914062 -26.515625 7.519531 -25.472656 7.0625 -24.171875 C 6.601562 -22.867188 6.132812 -21.4375 5.65625 -19.875 C 5.1875 -18.320312 4.738281 -16.773438 4.3125 -15.234375 C 3.894531 -13.691406 3.554688 -12.316406 3.296875 -11.109375 C 3.078125 -10.078125 2.882812 -9.03125 2.71875 -7.96875 C 2.550781 -6.90625 2.441406 -5.953125 2.390625 -5.109375 C 2.335938 -4.265625 2.347656 -3.679688 2.421875 -3.359375 L 2.578125 -2.75 L 3.84375 -3.953125 C 4.90625 -4.910156 6.160156 -6.429688 7.609375 -8.515625 C 9.066406 -10.609375 10.65625 -13.195312 12.375 -16.28125 C 12.851562 -17.125 13.253906 -17.875 13.578125 -18.53125 C 13.910156 -19.195312 14.222656 -19.910156 14.515625 -20.671875 C 14.804688 -21.441406 15.140625 -22.378906 15.515625 -23.484375 C 16.722656 -26.960938 17.921875 -30.019531 19.109375 -32.65625 C 20.304688 -35.300781 21.378906 -37.285156 22.328125 -38.609375 C 22.878906 -39.335938 23.347656 -39.835938 23.734375 -40.109375 C 24.117188 -40.390625 24.566406 -40.566406 25.078125 -40.640625 C 25.773438 -40.710938 26.414062 -40.472656 27 -39.921875 C 27.59375 -39.378906 27.851562 -38.773438 27.78125 -38.109375 C 27.738281 -37.960938 27.515625 -37.285156 27.109375 -36.078125 C 26.710938 -34.867188 26.253906 -33.515625 25.734375 -32.015625 C 24.890625 -29.628906 24.109375 -27.34375 23.390625 -25.15625 C 22.679688 -22.976562 21.992188 -20.710938 21.328125 -18.359375 C 20.671875 -16.015625 19.957031 -13.359375 19.1875 -10.390625 C 18.75 -8.703125 18.28125 -7.179688 17.78125 -5.828125 C 17.289062 -4.472656 16.828125 -3.425781 16.390625 -2.6875 C 15.660156 -1.59375 14.78125 -1.117188 13.75 -1.265625 C 13.019531 -1.410156 12.476562 -1.773438 12.125 -2.359375 C 11.78125 -2.953125 11.625 -3.832031 11.65625 -5 C 11.65625 -5.40625 11.65625 -5.753906 11.65625 -6.046875 C 11.65625 -6.335938 11.640625 -6.503906 11.609375 -6.546875 C 11.609375 -6.546875 11.457031 -6.34375 11.15625 -5.9375 C 10.863281 -5.53125 10.519531 -5.019531 10.125 -4.40625 C 9.28125 -3.15625 8.398438 -2.015625 7.484375 -0.984375 C 6.566406 0.0351562 5.738281 0.800781 5 1.3125 C 4.300781 1.832031 3.492188 2.164062 2.578125 2.3125 C 1.660156 2.457031 0.894531 2.398438 0.28125 2.140625 C -0.3125 1.890625 -0.863281 1.414062 -1.375 0.71875 C -1.59375 0.382812 -1.753906 0.109375 -1.859375 -0.109375 C -1.972656 -0.328125 -2.066406 -0.640625 -2.140625 -1.046875 C -2.210938 -1.453125 -2.304688 -2.078125 -2.421875 -2.921875 C -2.492188 -3.722656 -2.546875 -4.363281 -2.578125 -4.84375 C -2.617188 -5.320312 -2.617188 -5.796875 -2.578125 -6.265625 C -2.546875 -6.742188 -2.472656 -7.347656 -2.359375 -8.078125 Z M -2.359375 -8.078125 "/></g></g></g><g fill="#ffffff" fill-opacity="1"><g transform="translate(190.492929, 228.950097)"><g><path d="M 8.859375 -17.15625 C 13.222656 -19.25 17.171875 -21.367188 20.703125 -23.515625 C 24.242188 -25.660156 26.945312 -27.578125 28.8125 -29.265625 L 30.03125 -30.421875 L 29.421875 -30.6875 C 28.722656 -30.976562 27.445312 -31.195312 25.59375 -31.34375 C 23.75 -31.488281 21.613281 -31.523438 19.1875 -31.453125 C 17.6875 -31.421875 16.40625 -31.359375 15.34375 -31.265625 C 14.28125 -31.171875 13.257812 -31.050781 12.28125 -30.90625 C 11.3125 -30.757812 10.242188 -30.5625 9.078125 -30.3125 C 8.335938 -30.15625 7.882812 -30.03125 7.71875 -29.9375 C 7.5625 -29.851562 7.460938 -29.679688 7.421875 -29.421875 C 7.390625 -29.203125 7.304688 -28.71875 7.171875 -27.96875 C 7.046875 -27.21875 6.875 -26.328125 6.65625 -25.296875 C 6.4375 -24.273438 6.21875 -23.226562 6 -22.15625 C 5.78125 -21.09375 5.554688 -20.125 5.328125 -19.25 C 5.109375 -18.332031 4.925781 -17.515625 4.78125 -16.796875 C 4.632812 -16.085938 4.5625 -15.695312 4.5625 -15.625 C 4.601562 -15.4375 4.890625 -15.429688 5.421875 -15.609375 C 5.953125 -15.796875 7.097656 -16.3125 8.859375 -17.15625 Z M 31.796875 -33.9375 C 33.035156 -33.238281 33.800781 -32.265625 34.09375 -31.015625 C 34.351562 -29.773438 34.023438 -28.507812 33.109375 -27.21875 C 32.191406 -25.9375 30.488281 -24.34375 28 -22.4375 C 27.40625 -21.957031 26.851562 -21.535156 26.34375 -21.171875 C 25.832031 -20.804688 25.242188 -20.410156 24.578125 -19.984375 C 23.921875 -19.566406 23.109375 -19.054688 22.140625 -18.453125 C 21.171875 -17.847656 19.914062 -17.066406 18.375 -16.109375 C 16.425781 -14.898438 15.148438 -14.082031 14.546875 -13.65625 C 13.941406 -13.238281 13.710938 -12.992188 13.859375 -12.921875 C 14.628906 -12.773438 15.71875 -12.664062 17.125 -12.59375 C 18.539062 -12.519531 20.007812 -12.492188 21.53125 -12.515625 C 23.050781 -12.535156 24.328125 -12.597656 25.359375 -12.703125 C 26.273438 -12.816406 26.847656 -12.863281 27.078125 -12.84375 C 27.316406 -12.820312 27.566406 -12.722656 27.828125 -12.546875 C 28.410156 -12.140625 28.757812 -11.539062 28.875 -10.75 C 28.988281 -9.957031 28.84375 -9.195312 28.4375 -8.46875 C 28.070312 -7.8125 27.207031 -7.222656 25.84375 -6.703125 C 24.488281 -6.191406 22.8125 -5.816406 20.8125 -5.578125 C 18.8125 -5.335938 16.601562 -5.238281 14.1875 -5.28125 C 11.914062 -5.351562 10.109375 -5.523438 8.765625 -5.796875 C 7.429688 -6.078125 6.160156 -6.507812 4.953125 -7.09375 C 3.816406 -7.71875 3.15625 -8.03125 2.96875 -8.03125 C 2.9375 -8.03125 2.816406 -7.765625 2.609375 -7.234375 C 2.410156 -6.703125 2.179688 -6.066406 1.921875 -5.328125 C 1.671875 -4.597656 1.425781 -3.9375 1.1875 -3.34375 C 0.945312 -2.757812 0.789062 -2.429688 0.71875 -2.359375 C 0.238281 -1.921875 -0.273438 -1.976562 -0.828125 -2.53125 C -1.117188 -2.820312 -1.300781 -3.257812 -1.375 -3.84375 C -1.445312 -4.4375 -1.445312 -5.425781 -1.375 -6.8125 C -1.1875 -9.414062 -0.632812 -12.585938 0.28125 -16.328125 C 0.457031 -17.066406 0.691406 -17.9375 0.984375 -18.9375 C 1.285156 -19.945312 1.597656 -20.992188 1.921875 -22.078125 C 2.253906 -23.160156 2.578125 -24.160156 2.890625 -25.078125 C 3.203125 -25.992188 3.46875 -26.726562 3.6875 -27.28125 C 4.050781 -28.195312 4.234375 -28.726562 4.234375 -28.875 C 4.234375 -28.945312 3.96875 -28.863281 3.4375 -28.625 C 2.90625 -28.382812 2.269531 -28.070312 1.53125 -27.6875 C 0.800781 -27.300781 0.109375 -26.910156 -0.546875 -26.515625 C -1.648438 -25.816406 -2.328125 -25.421875 -2.578125 -25.328125 C -2.835938 -25.234375 -3.097656 -25.257812 -3.359375 -25.40625 C -4.234375 -25.925781 -4.566406 -26.644531 -4.359375 -27.5625 C -4.160156 -28.476562 -3.457031 -29.394531 -2.25 -30.3125 C -1.550781 -30.851562 -0.597656 -31.40625 0.609375 -31.96875 C 1.816406 -32.539062 3.125 -33.070312 4.53125 -33.5625 C 5.945312 -34.0625 7.296875 -34.441406 8.578125 -34.703125 C 9.972656 -34.992188 11.550781 -35.210938 13.3125 -35.359375 C 15.070312 -35.503906 16.882812 -35.578125 18.75 -35.578125 C 20.625 -35.578125 22.421875 -35.519531 24.140625 -35.40625 C 25.867188 -35.300781 27.398438 -35.117188 28.734375 -34.859375 C 30.078125 -34.609375 31.097656 -34.300781 31.796875 -33.9375 Z M 31.796875 -33.9375 "/></g></g></g><g fill="#ffffff" fill-opacity="1"><g transform="translate(220.245758, 228.950097)"><g><path d="M 31.015625 -29.15625 C 30.171875 -27.320312 29.34375 -25.46875 28.53125 -23.59375 C 27.726562 -21.726562 26.894531 -19.710938 26.03125 -17.546875 C 25.175781 -15.378906 24.195312 -12.90625 23.09375 -10.125 C 22.507812 -8.65625 21.832031 -6.875 21.0625 -4.78125 C 20.289062 -2.695312 19.492188 -0.4375 18.671875 2 C 17.847656 4.445312 17.015625 6.914062 16.171875 9.40625 C 15.066406 12.664062 14.128906 15.320312 13.359375 17.375 C 12.585938 19.425781 11.910156 20.992188 11.328125 22.078125 C 10.742188 23.160156 10.1875 23.863281 9.65625 24.1875 C 9.125 24.519531 8.5625 24.613281 7.96875 24.46875 C 7.28125 24.289062 6.75 23.796875 6.375 22.984375 C 6.226562 22.617188 6.164062 21.941406 6.1875 20.953125 C 6.207031 19.960938 6.328125 18.972656 6.546875 17.984375 C 6.878906 16.554688 7.421875 14.640625 8.171875 12.234375 C 8.921875 9.835938 9.835938 7.078125 10.921875 3.953125 C 12.003906 0.835938 13.1875 -2.457031 14.46875 -5.9375 C 14.863281 -6.925781 15.289062 -8.070312 15.75 -9.375 C 16.207031 -10.675781 16.585938 -11.734375 16.890625 -12.546875 C 17.179688 -13.347656 17.453125 -14.097656 17.703125 -14.796875 C 17.960938 -15.492188 18.128906 -15.914062 18.203125 -16.0625 L 18.484375 -16.671875 L 18.046875 -16.171875 C 17.890625 -16.054688 17.609375 -15.75 17.203125 -15.25 C 16.804688 -14.757812 16.390625 -14.238281 15.953125 -13.6875 C 13.421875 -10.570312 11.203125 -8.242188 9.296875 -6.703125 C 7.390625 -5.171875 5.644531 -4.3125 4.0625 -4.125 C 1.757812 -3.90625 0.0390625 -4.953125 -1.09375 -7.265625 C -1.6875 -8.429688 -2 -10.003906 -2.03125 -11.984375 C -2.070312 -13.960938 -1.832031 -16 -1.3125 -18.09375 C -0.800781 -20.289062 -0.15625 -22.296875 0.625 -24.109375 C 1.414062 -25.929688 2.242188 -27.390625 3.109375 -28.484375 C 3.972656 -29.585938 4.769531 -30.175781 5.5 -30.25 C 6.300781 -30.320312 6.800781 -30.09375 7 -29.5625 C 7.207031 -29.03125 7.019531 -28.363281 6.4375 -27.5625 C 5.957031 -26.863281 5.597656 -26.253906 5.359375 -25.734375 C 5.117188 -25.222656 4.835938 -24.457031 4.515625 -23.4375 C 3.921875 -21.632812 3.441406 -19.816406 3.078125 -17.984375 C 2.710938 -16.148438 2.507812 -14.484375 2.46875 -12.984375 C 2.4375 -12.023438 2.457031 -11.316406 2.53125 -10.859375 C 2.601562 -10.398438 2.75 -9.914062 2.96875 -9.40625 C 3.113281 -9.070312 3.238281 -8.859375 3.34375 -8.765625 C 3.457031 -8.679688 3.625 -8.65625 3.84375 -8.6875 C 4.363281 -8.757812 5.117188 -9.125 6.109375 -9.78125 C 7.097656 -10.445312 8.195312 -11.328125 9.40625 -12.421875 C 10.613281 -13.523438 11.804688 -14.738281 12.984375 -16.0625 C 15.878906 -19.320312 18.460938 -22.507812 20.734375 -25.625 C 23.003906 -28.75 24.691406 -31.425781 25.796875 -33.65625 C 26.421875 -34.90625 27.109375 -36.179688 27.859375 -37.484375 C 28.609375 -38.785156 29.347656 -39.992188 30.078125 -41.109375 C 30.816406 -42.234375 31.476562 -43.160156 32.0625 -43.890625 C 32.644531 -44.585938 33.046875 -45.019531 33.265625 -45.1875 C 33.492188 -45.351562 33.789062 -45.453125 34.15625 -45.484375 C 35.65625 -45.597656 36.515625 -44.898438 36.734375 -43.390625 C 36.804688 -42.992188 36.75 -42.488281 36.5625 -41.875 C 36.382812 -41.269531 36.039062 -40.421875 35.53125 -39.328125 C 35.34375 -38.921875 35.09375 -38.367188 34.78125 -37.671875 C 34.46875 -36.972656 34.1875 -36.332031 33.9375 -35.75 C 33.675781 -35.164062 33.257812 -34.226562 32.6875 -32.9375 C 32.125 -31.65625 31.566406 -30.394531 31.015625 -29.15625 Z M 31.015625 -29.15625 "/></g></g></g><g fill="#ffffff" fill-opacity="1"><g transform="translate(246.203783, 228.950097)"><g><path d="M 9.40625 -16.171875 C 9.507812 -16.390625 9.679688 -16.945312 9.921875 -17.84375 C 10.160156 -18.738281 10.4375 -19.765625 10.75 -20.921875 C 11.0625 -22.078125 11.328125 -23.132812 11.546875 -24.09375 C 11.953125 -25.707031 12.3125 -27.21875 12.625 -28.625 C 12.9375 -30.039062 13.179688 -31.195312 13.359375 -32.09375 C 13.546875 -32.988281 13.617188 -33.4375 13.578125 -33.4375 C 13.578125 -33.476562 13.289062 -33.019531 12.71875 -32.0625 C 12.15625 -31.113281 11.441406 -29.875 10.578125 -28.34375 C 9.722656 -26.820312 8.800781 -25.179688 7.8125 -23.421875 C 6.820312 -21.671875 5.875 -19.96875 4.96875 -18.3125 C 4.070312 -16.664062 3.3125 -15.242188 2.6875 -14.046875 C 2.070312 -12.859375 1.707031 -12.097656 1.59375 -11.765625 L 5.390625 -13.75 C 6.597656 -14.375 7.554688 -14.894531 8.265625 -15.3125 C 8.984375 -15.738281 9.363281 -16.023438 9.40625 -16.171875 Z M 14.515625 -17.8125 C 14.515625 -17.8125 14.671875 -17.882812 14.984375 -18.03125 C 15.296875 -18.1875 15.632812 -18.335938 16 -18.484375 C 16.375 -18.628906 16.632812 -18.679688 16.78125 -18.640625 C 17.363281 -18.492188 17.738281 -18.050781 17.90625 -17.3125 C 18.070312 -16.582031 18.132812 -15.820312 18.09375 -15.03125 C 18.0625 -14.25 18.046875 -13.675781 18.046875 -13.3125 C 18.046875 -12.539062 17.613281 -11.816406 16.75 -11.140625 C 15.882812 -10.460938 14.863281 -9.8125 13.6875 -9.1875 L 12.265625 -8.421875 L 11.0625 -2.96875 C 10.726562 -1.46875 10.394531 -0.09375 10.0625 1.15625 C 9.726562 2.40625 9.507812 3.15625 9.40625 3.40625 C 9.070312 4.144531 8.601562 4.660156 8 4.953125 C 7.394531 5.242188 6.78125 5.242188 6.15625 4.953125 C 5.757812 4.765625 5.421875 4.453125 5.140625 4.015625 C 4.867188 3.578125 4.734375 3.082031 4.734375 2.53125 C 4.734375 2.34375 4.832031 1.78125 5.03125 0.84375 C 5.226562 -0.0820312 5.457031 -1.078125 5.71875 -2.140625 C 5.976562 -3.203125 6.1875 -4.128906 6.34375 -4.921875 C 6.507812 -5.710938 6.554688 -6.109375 6.484375 -6.109375 C 6.453125 -6.109375 6.171875 -6.003906 5.640625 -5.796875 C 5.109375 -5.597656 4.484375 -5.34375 3.765625 -5.03125 C 3.046875 -4.71875 2.335938 -4.40625 1.640625 -4.09375 C 0.953125 -3.78125 0.382812 -3.515625 -0.0625 -3.296875 C -0.644531 -3.003906 -1.023438 -2.753906 -1.203125 -2.546875 C -1.390625 -2.347656 -1.578125 -1.976562 -1.765625 -1.4375 C -1.984375 -0.84375 -2.171875 -0.425781 -2.328125 -0.1875 C -2.492188 0.0507812 -2.726562 0.171875 -3.03125 0.171875 C -3.25 0.171875 -3.457031 0.0351562 -3.65625 -0.234375 C -3.851562 -0.515625 -3.953125 -0.800781 -3.953125 -1.09375 C -3.953125 -1.46875 -4.101562 -1.65625 -4.40625 -1.65625 C -4.769531 -1.65625 -5.125 -1.765625 -5.46875 -1.984375 C -5.820312 -2.203125 -6.050781 -2.4375 -6.15625 -2.6875 C -6.269531 -3.0625 -6.222656 -3.613281 -6.015625 -4.34375 C -5.816406 -5.070312 -5.5 -5.832031 -5.0625 -6.625 C -4.625 -7.414062 -4.070312 -8.085938 -3.40625 -8.640625 C -2.820312 -9.148438 -2.421875 -9.609375 -2.203125 -10.015625 C -1.722656 -10.960938 -1.078125 -12.28125 -0.265625 -13.96875 C 0.535156 -15.65625 1.445312 -17.523438 2.46875 -19.578125 C 3.5 -21.628906 4.570312 -23.71875 5.6875 -25.84375 C 6.8125 -27.976562 7.910156 -29.988281 8.984375 -31.875 C 10.066406 -33.757812 11.066406 -35.351562 11.984375 -36.65625 C 12.898438 -37.957031 13.691406 -38.8125 14.359375 -39.21875 C 15.160156 -39.613281 15.898438 -39.664062 16.578125 -39.375 C 17.253906 -39.082031 17.664062 -38.535156 17.8125 -37.734375 C 17.894531 -37.328125 17.859375 -36.546875 17.703125 -35.390625 C 17.554688 -34.234375 17.347656 -32.828125 17.078125 -31.171875 C 16.804688 -29.523438 16.476562 -27.726562 16.09375 -25.78125 C 15.707031 -23.84375 15.289062 -21.90625 14.84375 -19.96875 C 14.664062 -19.195312 14.554688 -18.664062 14.515625 -18.375 C 14.484375 -18.082031 14.472656 -17.925781 14.484375 -17.90625 C 14.503906 -17.882812 14.515625 -17.851562 14.515625 -17.8125 Z M 14.515625 -17.8125 "/></g></g></g><g fill="#ffffff" fill-opacity="1"><g transform="translate(264.242475, 228.950097)"><g/></g></g><g fill="#ffffff" fill-opacity="1"><g transform="translate(281.896199, 228.950097)"><g><path d="M 2.359375 -2.359375 C 2.617188 -1.484375 2.328125 -0.550781 1.484375 0.4375 C 0.898438 1.175781 0.289062 1.707031 -0.34375 2.03125 C -0.988281 2.363281 -1.550781 2.421875 -2.03125 2.203125 C -2.144531 2.160156 -2.273438 2.082031 -2.421875 1.96875 C -2.566406 1.863281 -2.695312 1.757812 -2.8125 1.65625 C -3.0625 1.320312 -3.1875 0.84375 -3.1875 0.21875 C -3.1875 -0.40625 -3.054688 -1.035156 -2.796875 -1.671875 C -2.546875 -2.316406 -2.21875 -2.820312 -1.8125 -3.1875 C -1.300781 -3.664062 -0.515625 -3.847656 0.546875 -3.734375 C 1.429688 -3.628906 2.035156 -3.171875 2.359375 -2.359375 Z M 2.359375 -2.359375 "/></g></g></g></svg>